<?xml version="1.0" encoding="UTF-8"?>
<svg id="Layer_1" xmlns="http://www.w3.org/2000/svg" viewBox="0 0 1280 1024">
  <defs>
    <style>
      .cls-1 {
        fill: #75c6a8;
      }

      .cls-2 {
        fill: #79d3b5;
      }

      .cls-3 {
        fill: #ccc6ae;
      }

      .cls-4 {
        fill: #493922;
      }

      .cls-5 {
        fill: #eac113;
      }

      .cls-6 {
        fill: #5b5332;
      }

      .cls-7 {
        fill: #6db296;
      }

      .cls-8 {
        fill: #afa58b;
      }
    </style>
  </defs>
  <rect class="cls-8" y="627" width="1280" height="397"/>
  <rect class="cls-6" width="1280" height="627"/>
  <g>
    <g>
      <rect class="cls-4" x="287" y="744" width="31" height="154"/>
      <rect class="cls-4" x="287" y="714" width="172" height="31"/>
      <rect class="cls-4" x="428" y="744" width="31" height="154"/>
      <rect class="cls-4" x="287" y="790" width="172" height="31"/>
    </g>
    <g>
      <rect class="cls-3" x="370" y="623" width="8" height="92"/>
      <rect class="cls-5" x="336" y="553" width="75" height="93"/>
      <ellipse cx="373" cy="714.5" rx="42" ry="5.5"/>
    </g>
  </g>
  <g>
    <rect class="cls-2" x="667" y="660" width="337" height="172" rx="45.99" ry="45.99"/>
    <rect class="cls-1" x="667" y="792" width="337" height="86"/>
    <rect class="cls-7" x="565" y="769" width="164" height="86" rx="33.41" ry="33.41" transform="translate(1459 165) rotate(90)"/>
    <rect class="cls-7" x="937" y="769" width="164" height="86" rx="33.41" ry="33.41" transform="translate(1831 -207) rotate(90)"/>
  </g>
</svg>